<?xml version="1.0" encoding="utf-8" ?>
<svg baseProfile="tiny" height="1024" version="1.2" width="1024" xmlns="http://www.w3.org/2000/svg" xmlns:ev="http://www.w3.org/2001/xml-events" xmlns:xlink="http://www.w3.org/1999/xlink"><defs /><path d="M 222,77 221,78 214,78 213,79 207,79 206,80 202,80 201,81 198,81 197,82 194,82 193,83 191,83 190,84 188,84 187,85 185,85 184,86 182,86 181,87 180,87 179,88 177,88 176,89 175,89 174,90 172,90 171,91 170,91 169,92 168,92 166,94 165,94 164,95 163,95 161,97 160,97 159,98 158,98 156,100 155,100 153,102 152,102 149,105 148,105 144,109 143,109 129,123 129,124 124,129 124,130 121,133 121,134 119,136 119,137 117,139 117,140 115,142 115,143 114,144 114,145 112,147 112,148 111,149 111,150 110,151 110,152 109,153 109,154 108,155 108,157 107,158 107,159 106,160 106,162 105,163 105,164 104,165 104,167 103,168 103,171 102,172 102,174 101,175 101,178 100,179 100,183 99,184 99,187 98,188 98,194 97,195 97,203 96,204 96,818 97,819 96,820 96,822 97,823 97,830 98,831 98,837 99,838 99,843 100,844 100,846 101,847 101,851 102,852 102,854 103,855 103,857 104,858 104,860 105,861 105,863 106,864 106,866 107,867 107,868 108,869 108,870 109,871 109,872 110,873 110,874 111,875 111,876 112,877 112,878 113,879 113,880 114,881 114,882 115,883 115,884 116,885 116,886 118,888 118,889 120,891 120,892 122,894 122,895 125,898 125,899 128,902 128,903 133,908 133,909 134,909 135,910 135,911 144,920 145,920 148,923 149,923 150,924 150,925 151,925 154,928 155,928 158,931 159,931 161,933 162,933 164,935 165,935 166,936 167,936 169,938 170,938 171,939 172,939 173,940 174,940 175,941 176,941 177,942 178,942 179,943 180,943 181,944 183,944 184,945 185,945 186,946 188,946 189,947 190,947 191,948 193,948 194,949 196,949 197,950 200,950 201,951 203,951 204,952 208,952 209,953 213,953 214,954 219,954 220,955 226,955 227,956 234,956 235,957 236,957 237,956 238,957 784,957 785,956 786,956 787,957 788,957 789,956 797,956 798,955 806,955 807,954 811,954 812,953 816,953 817,952 820,952 821,951 824,951 825,950 827,950 828,949 830,949 831,948 833,948 834,947 836,947 837,946 838,946 839,945 841,945 842,944 843,944 844,943 845,943 846,942 847,942 848,941 849,941 850,940 851,940 852,939 853,939 855,937 856,937 857,936 858,936 860,934 861,934 863,932 864,932 866,930 867,930 870,927 871,927 875,923 876,923 894,905 894,904 897,901 897,900 900,897 900,896 902,894 902,893 904,891 904,890 906,888 906,887 907,886 907,885 908,884 908,883 910,881 910,880 911,879 911,878 912,877 912,876 913,875 913,874 914,873 914,872 915,871 915,869 916,868 916,867 917,866 917,865 918,864 918,862 919,861 919,859 920,858 920,856 921,855 921,852 922,851 922,849 923,848 923,844 924,843 924,839 925,838 925,834 926,833 925,832 926,831 926,824 927,823 927,203 926,202 926,192 925,191 925,187 924,186 924,182 923,181 923,178 922,177 922,174 921,173 921,171 920,170 920,168 919,167 919,165 918,164 918,162 917,161 917,160 916,159 916,157 915,156 915,155 914,154 914,153 913,152 913,151 912,150 912,149 911,148 911,147 910,146 910,145 909,144 909,143 907,141 907,140 906,139 906,138 904,136 904,135 902,133 902,132 899,129 899,128 894,123 894,122 883,111 882,111 878,107 877,107 873,103 872,103 869,100 868,100 866,98 865,98 864,97 863,97 862,96 861,96 859,94 858,94 856,92 854,92 853,91 852,91 851,90 850,90 849,89 848,89 847,88 846,88 845,87 843,87 842,86 840,86 839,85 838,85 837,84 834,84 833,83 831,83 830,82 827,82 826,81 823,81 822,80 818,80 817,79 813,79 812,78 811,78 810,79 809,78 803,78 802,77 Z" fill="black" /></svg>